<?xml version="1.0" standalone="no"?><!DOCTYPE svg PUBLIC "-//W3C//DTD SVG 1.1//EN" "http://www.w3.org/Graphics/SVG/1.1/DTD/svg11.dtd"><svg t="1653973050595" class="icon" viewBox="0 0 1024 1024" version="1.1" xmlns="http://www.w3.org/2000/svg" p-id="8317" id="mx_n_1653973050596" width="128" height="128" data-spm-anchor-id="a313x.7781069.0.i21" xmlns:xlink="http://www.w3.org/1999/xlink"><defs><style type="text/css"></style></defs><path d="M170.666667 85.333333h682.666666a42.666667 42.666667 0 0 1 42.666667 42.666667v822.442667a21.333333 21.333333 0 0 1-30.037333 19.498666L512 811.946667l-353.962667 157.952A21.333333 21.333333 0 0 1 128 950.442667V128a42.666667 42.666667 0 0 1 42.666667-42.666667z m341.333333 490.666667l125.397333 65.92-23.936-139.605333 101.418667-98.901334-140.202667-20.394666L512 256l-62.72 127.018667-140.16 20.394666 101.418667 98.901334-23.893334 139.605333L512 576z" p-id="8318" data-spm-anchor-id="a313x.7781069.0.i20" class="" fill="#0ea5e9"></path></svg>